HIERARCHY
ROOT root
{
	OFFSET 0.000000 0.000000 0.000000
	CHANNELS 6 Xposition Yposition Zposition Zrotation Yrotation Xrotation
	JOINT lhip
	{
		OFFSET 0.058581 -0.082280 -0.017664
		CHANNELS 3 Zrotation Yrotation Xrotation
		JOINT lknee
		{
			OFFSET 0.043451 -0.386469 0.008037
			CHANNELS 3 Zrotation Yrotation Xrotation
			JOINT lankle
			{
				OFFSET -0.014790 -0.426874 -0.037428
				CHANNELS 3 Zrotation Yrotation Xrotation
				JOINT ltoe
				{
					OFFSET 0.041054 -0.060286 0.122042
					CHANNELS 3 Zrotation Yrotation Xrotation
					End Site
					{
						OFFSET 0.000000 0.000000 0.000000
					}
				}
			}
		}
	}
	JOINT rhip
	{
		OFFSET -0.060310 -0.090513 -0.013543
		CHANNELS 3 Zrotation Yrotation Xrotation
		JOINT rknee
		{
			OFFSET -0.043257 -0.383688 -0.004843
			CHANNELS 3 Zrotation Yrotation Xrotation
			JOINT rankle
			{
				OFFSET 0.019056 -0.420046 -0.034562
				CHANNELS 3 Zrotation Yrotation Xrotation
				JOINT rtoe
				{
					OFFSET -0.034840 -0.062106 0.130323
					CHANNELS 3 Zrotation Yrotation Xrotation
					End Site
					{
						OFFSET 0.000000 0.000000 0.000000
					}
				}
			}
		}
	}
	JOINT lowerback
	{
		OFFSET 0.004439 0.124404 -0.038385
		CHANNELS 3 Zrotation Yrotation Xrotation
		JOINT upperback
		{
			OFFSET 0.004488 0.137956 0.026820
			CHANNELS 3 Zrotation Yrotation Xrotation
			JOINT chest
			{
				OFFSET -0.002265 0.056032 0.002855
				CHANNELS 3 Zrotation Yrotation Xrotation
				JOINT lowerneck
				{
					OFFSET -0.013390 0.211636 -0.033468
					CHANNELS 3 Zrotation Yrotation Xrotation
					JOINT upperneck
					{
						OFFSET 0.010113 0.088937 0.050410
						CHANNELS 3 Zrotation Yrotation Xrotation
						End Site
						{
							OFFSET 0.000000 0.000000 0.000000
						}
					}
				}
				JOINT lclavicle
				{
					OFFSET 0.071702 0.114000 -0.018898
					CHANNELS 3 Zrotation Yrotation Xrotation
					JOINT lshoulder
					{
						OFFSET 0.122921 0.045205 -0.019046
						CHANNELS 3 Zrotation Yrotation Xrotation
						JOINT lelbow
						{
							OFFSET 0.255332 -0.015649 -0.022946
							CHANNELS 3 Zrotation Yrotation Xrotation
							JOINT lwrist
							{
								OFFSET 0.265709 0.012698 -0.007375
								CHANNELS 3 Zrotation Yrotation Xrotation
								End Site
								{
									OFFSET 0.000000 0.000000 0.000000
								}
							}
						}
					}
				}
				JOINT rclavicle
				{
					OFFSET -0.082954 0.112472 -0.023707
					CHANNELS 3 Zrotation Yrotation Xrotation
					JOINT rshoulder
					{
						OFFSET -0.113228 0.046853 -0.008472
						CHANNELS 3 Zrotation Yrotation Xrotation
						JOINT relbow
						{
							OFFSET -0.260127 -0.014369 -0.031269
							CHANNELS 3 Zrotation Yrotation Xrotation
							JOINT rwrist
							{
								OFFSET -0.269108 0.006794 -0.006027
								CHANNELS 3 Zrotation Yrotation Xrotation
								End Site
								{
									OFFSET 0.000000 0.000000 0.000000
								}
							}
						}
					}
				}
			}
		}
	}
}
MOTION
Frames: 11
Frame Time: 0.033333
1.053869 0.801095 1.200614 76.051604 -0.849730 92.465614 1.762657 -3.406960 -10.879026 -4.115332 2.693684 26.072448 -2.908757 9.919800 28.533398 0.000000 -0.000000 0.000000 0.275714 -2.489076 -11.277332 0.006605 -3.760150 17.556915 11.407894 -6.058411 39.884504 0.000000 -0.000000 0.000000 -7.861616 3.281748 6.769848 5.574089 -4.272408 -0.224483 2.604814 -3.005373 0.760149 13.343066 -35.385853 -12.431193 17.893974 -30.907365 -12.172121 -22.831627 2.973861 4.372510 -48.415189 2.275779 15.772423 -20.263074 -24.530837 27.604770 -13.443364 3.517622 4.587787 17.717480 11.520345 -4.189443 54.395414 17.357453 32.978416 56.172407 68.995292 74.078692 7.658575 7.227002 -11.525459 
1.047394 0.808625 1.203431 53.596983 0.195691 93.161433 2.499251 -3.973417 -10.525940 -5.396071 -1.897212 23.274092 -5.843492 8.042467 29.595482 0.000000 -0.000000 0.000000 0.176853 -2.330288 -10.398390 -0.999604 -7.895116 16.406982 8.823440 -8.024658 38.567691 0.000000 -0.000000 0.000000 -6.925515 3.815349 6.989746 4.461754 -2.978084 1.796368 2.720837 -1.876633 0.001892 13.891558 -33.756357 -11.994681 19.143104 -30.590723 -13.355355 -21.048472 5.731897 4.099470 -48.587480 6.093633 15.664576 -25.676982 -27.107250 31.254575 -13.888025 2.210334 -0.876390 17.902120 12.310398 -4.106604 57.522617 16.990584 33.518843 51.143623 67.868112 67.717512 4.802539 8.071571 -11.001202 
1.044920 0.815722 1.195852 32.622543 1.493070 94.306681 2.573523 -5.612669 -11.117868 -4.998414 -5.258911 20.079476 -7.958495 6.976364 28.045851 0.000000 -0.000000 0.000000 -0.342384 -3.941379 -10.306648 -1.606028 -11.522942 16.881495 5.841757 -9.973497 35.718846 0.000000 -0.000000 0.000000 -6.488484 4.803095 6.540905 3.970331 -2.494374 2.796646 2.532879 -0.971061 -0.751758 13.814740 -32.167792 -11.176226 19.347230 -30.174169 -14.454141 -19.990853 7.350292 5.490932 -46.907695 10.166151 16.199893 -30.371279 -29.193165 34.994677 -16.668199 -0.662984 -7.057158 18.419845 12.086355 -2.573783 57.575877 16.469287 32.080489 44.118811 67.636372 59.768445 4.167658 7.888818 -10.625098 
1.040820 0.823910 1.177112 13.004179 3.523168 95.332333 3.587142 -7.393135 -12.157817 -2.782482 -9.224991 15.488035 -7.115046 6.567057 23.880423 0.000000 -0.000000 0.000000 -0.422544 -7.213937 -11.627443 -2.420894 -14.627314 20.300109 2.015726 -13.323769 30.778828 0.000000 -0.000000 0.000000 -5.955752 6.234829 6.315743 3.485195 -1.751012 2.693893 2.069014 -0.471360 -0.785122 13.169992 -27.807580 -11.327517 18.516054 -30.095854 -13.920287 -18.968996 8.272814 6.417777 -43.946560 12.815647 16.519838 -34.325972 -27.002989 40.481669 -21.242576 -2.947977 -10.741659 19.330297 11.288340 -1.336312 55.958934 16.159645 29.050174 33.082453 66.130895 48.162477 2.225010 7.817572 -9.225120 
1.036568 0.833779 1.147122 -5.505660 5.777342 95.241090 5.585221 -8.273414 -12.642939 -0.350410 -13.326208 11.677409 -7.251564 5.634853 19.288288 0.000000 -0.000000 0.000000 -0.625197 -9.811447 -12.328785 -2.700976 -15.901650 23.357973 0.947840 -14.931274 27.681434 0.000000 -0.000000 0.000000 -6.330966 7.764193 6.605492 3.328498 -1.094813 2.339490 2.016799 -0.158411 -0.409741 13.806201 -21.501784 -12.785078 16.224425 -29.173437 -12.147599 -18.969258 8.598847 6.360904 -41.024448 14.280695 16.629771 -34.147295 -21.363535 40.605939 -23.550333 -3.898054 -9.212550 21.208694 10.165775 -1.759777 52.363938 16.822268 26.137149 21.271099 61.394980 35.597474 1.892050 7.274308 -7.448668 
1.033285 0.843640 1.106550 -22.998327 8.099700 94.228246 8.365645 -8.492028 -13.666051 -1.970522 -17.129982 13.814088 -7.054498 5.383919 20.466003 0.000000 -0.000000 0.000000 -0.878073 -9.941614 -13.174090 -1.401077 -14.964811 26.946369 2.252033 -14.091747 26.688708 0.000000 -0.000000 0.000000 -6.931346 8.795916 6.897971 3.331107 -0.182497 2.508988 1.969840 0.230072 -0.695996 14.723030 -15.495427 -13.631786 14.145163 -26.507855 -9.851555 -19.975679 8.257193 5.733923 -37.537486 16.456368 15.700283 -30.359602 -16.550886 38.807297 -25.793142 -1.252652 -3.434836 22.428818 10.277826 -1.460498 48.669717 17.780866 22.398879 9.838374 55.914858 23.563842 2.248697 6.860008 -4.232656 
1.033149 0.852970 1.056175 -39.180603 10.209333 91.810138 10.038051 -8.828791 -14.906403 -4.849188 -16.415023 24.259883 -3.673275 10.968215 12.051055 0.000000 -0.000000 0.000000 -1.027947 -8.931315 -14.154159 1.322963 -13.627839 32.038014 2.308694 -14.814074 23.785463 0.000000 -0.000000 0.000000 -6.571069 9.333775 8.290124 3.125944 0.671980 2.730714 1.801879 0.905413 -0.353997 15.153489 -10.446432 -15.345501 11.793407 -22.554889 -8.279501 -22.228501 7.096784 4.479896 -32.740784 18.344935 14.298560 -24.009179 -12.753278 33.307381 -18.800639 -1.723460 1.651914 24.130471 11.537679 -1.210547 40.210807 18.658897 18.618020 5.770897 52.452213 19.194381 1.126891 6.584197 -7.032390 
1.033211 0.862273 0.998227 -52.906127 12.020696 88.183588 12.583962 -3.824676 -16.128658 -6.444514 -8.725126 39.532323 -0.671425 11.583154 -11.891983 0.000000 -0.000000 0.000000 0.435820 -8.382663 -13.025205 4.303778 -10.630827 35.452103 4.297314 -12.430146 9.475721 0.000000 -0.000000 0.000000 -5.698201 9.745140 12.572714 2.983934 1.322956 0.851032 1.843620 1.776142 0.832090 15.874542 -5.277289 -16.817122 8.400791 -19.892033 -7.585790 -22.405457 6.180240 1.832903 -28.054281 17.305192 11.347842 -18.461347 -8.111047 26.724461 -18.116032 0.923970 13.701121 23.730567 11.169888 -3.415909 35.575295 18.825475 13.899064 2.023875 50.556446 13.583739 8.143996 4.369543 -3.440624 
1.043006 0.874163 0.942896 -61.824979 12.207349 88.506383 14.214865 -1.637181 -22.444751 -8.770862 -6.355701 51.522400 -1.687682 13.758438 -23.696122 0.000000 -0.000000 0.000000 1.475370 -6.495310 -15.951644 4.854337 -8.710250 37.915811 3.033861 -10.214899 -14.036544 0.000000 -0.000000 0.000000 -5.641775 9.162079 15.124298 2.442388 1.101693 -1.131955 1.655951 1.836310 2.263932 15.522941 1.187050 -20.382613 6.603437 -18.824309 -7.162363 -19.211203 4.015651 -0.802660 -26.645726 15.346320 8.270375 -11.303061 -9.992321 25.270509 -18.776722 3.736782 16.708976 21.595077 10.600166 -5.012228 32.733079 19.595838 8.843691 -3.966820 48.883942 10.562882 13.990159 3.514100 -4.879802 
1.054706 0.881362 0.900590 -67.476098 11.765193 89.521510 14.515340 -1.274765 -27.806865 -9.102477 -2.898973 59.317598 -1.368360 16.992064 -32.948747 0.000000 -0.000000 0.000000 2.529791 -4.558755 -19.722579 5.259761 -4.403916 39.631389 0.984785 -12.981776 -30.463776 0.000000 -0.000000 0.000000 -5.130435 9.001302 17.731888 1.920518 0.287665 -3.054977 1.463539 1.209311 3.257760 13.951050 4.581643 -22.464721 6.301257 -16.839352 -9.131038 -16.669686 2.038343 -2.591215 -23.540245 10.716264 4.670202 -8.794710 -15.309012 15.955332 -12.040751 2.832741 9.064313 19.974872 10.704348 -4.831338 28.991600 18.797780 5.384927 -10.021699 47.064550 2.777057 7.348413 3.383198 -6.510474 
1.069548 0.884078 0.876427 -70.677254 10.715965 90.013135 12.651957 -1.895956 -30.509627 -6.546521 -0.958254 62.201608 0.676526 20.901240 -37.886714 0.000000 -0.000000 0.000000 0.690627 -1.846688 -30.536048 4.712965 -5.577333 53.296653 2.845770 -14.450629 -28.429034 0.000000 -0.000000 0.000000 -5.747903 7.075330 21.930448 2.070181 0.159416 -4.514431 1.622067 0.463490 3.739587 12.226073 6.050172 -25.016149 6.586596 -13.441638 -12.022337 -15.146390 -0.846698 -4.047222 -20.509789 4.699071 1.295490 -6.079309 -19.298956 5.645361 -7.622412 -0.278666 5.175362 18.751666 11.083296 -4.725838 25.319030 18.302341 2.985665 -16.729281 44.186546 -7.145998 4.744943 3.143984 -5.655265 
